<svg width="3226" height="715" xmlns="http://www.w3.org/2000/svg" xmlns:xlink="http://www.w3.org/1999/xlink" xml:space="preserve" overflow="hidden"><g transform="translate(-637 -1109)"><g><path d="M765.128 1119.06 1259.59 1119.06 1259.59 1252.89 765.128 1252.89Z" fill="#FFEEC9" fill-rule="evenodd" fill-opacity="1"/><path d="M1259.59 1252.89 1877.66 1252.89 1877.66 1386.73 1259.59 1386.73Z" fill="#AFABAB" fill-rule="evenodd" fill-opacity="1"/><path d="M1259.59 1386.73 1383.2 1386.73 1383.2 1520.56 1259.59 1520.56Z" fill="#D6DCE5" fill-rule="evenodd" fill-opacity="1"/><path d="M1383.2 1386.73 1506.81 1386.73 1506.81 1520.56 1383.2 1520.56Z" fill="#D6DCE5" fill-rule="evenodd" fill-opacity="1"/><path d="M1506.81 1386.73 1630.43 1386.73 1630.43 1520.56 1506.81 1520.56Z" fill="#D6DCE5" fill-rule="evenodd" fill-opacity="1"/><path d="M1630.43 1386.73 1754.04 1386.73 1754.04 1520.56 1630.43 1520.56Z" fill="#D6DCE5" fill-rule="evenodd" fill-opacity="1"/><path d="M1754.04 1386.73 1877.66 1386.73 1877.66 1520.56 1754.04 1520.56Z" fill="#D6DCE5" fill-rule="evenodd" fill-opacity="1"/><path d="M1877.66 1386.73 2248.5 1386.73 2248.5 1520.56 1877.66 1520.56Z" fill="#FFCBC9" fill-rule="evenodd" fill-opacity="1"/><path d="M765.128 1520.56 888.743 1520.56 888.743 1654.39 765.128 1654.39Z" fill="#D6DCE5" fill-rule="evenodd" fill-opacity="1"/><path d="M888.743 1520.56 1012.36 1520.56 1012.36 1654.39 888.743 1654.39Z" fill="#D6DCE5" fill-rule="evenodd" fill-opacity="1"/><path d="M1012.36 1520.56 1135.97 1520.56 1135.97 1654.39 1012.36 1654.39Z" fill="#D6DCE5" fill-rule="evenodd" fill-opacity="1"/><path d="M1135.97 1520.56 1259.59 1520.56 1259.59 1654.39 1135.97 1654.39Z" fill="#D6DCE5" fill-rule="evenodd" fill-opacity="1"/><path d="M2248.5 1520.56 2990.19 1520.56 2990.19 1654.39 2248.5 1654.39Z" fill="#CDD6FF" fill-rule="evenodd" fill-opacity="1"/><path d="M2248.5 1654.39 2372.11 1654.39 2372.11 1788.23 2248.5 1788.23Z" fill="#D6DCE5" fill-rule="evenodd" fill-opacity="1"/><path d="M2372.11 1654.39 2495.73 1654.39 2495.73 1788.23 2372.11 1788.23Z" fill="#D6DCE5" fill-rule="evenodd" fill-opacity="1"/><path d="M2495.73 1654.39 2619.34 1654.39 2619.34 1788.23 2495.73 1788.23Z" fill="#D6DCE5" fill-rule="evenodd" fill-opacity="1"/><path d="M2619.34 1654.39 2742.96 1654.39 2742.96 1788.23 2619.34 1788.23Z" fill="#D6DCE5" fill-rule="evenodd" fill-opacity="1"/><path d="M2742.96 1654.39 2866.57 1654.39 2866.57 1788.23 2742.96 1788.23Z" fill="#D6DCE5" fill-rule="evenodd" fill-opacity="1"/><path d="M2866.57 1654.39 2990.19 1654.39 2990.19 1788.23 2866.57 1788.23Z" fill="#D6DCE5" fill-rule="evenodd" fill-opacity="1"/><path d="M2990.19 1654.39 3361.03 1654.39 3361.03 1788.23 2990.19 1788.23Z" fill="#FFD4CC" fill-rule="evenodd" fill-opacity="1"/><path d="M765.128 1116.77 765.128 1790.52" stroke="#000000" stroke-width="4.58333" stroke-linecap="butt" stroke-linejoin="round" stroke-miterlimit="10" stroke-opacity="1" fill="none" fill-rule="evenodd"/><path d="M888.743 1250.6 888.743 1790.52" stroke="#000000" stroke-width="4.58333" stroke-linecap="butt" stroke-linejoin="round" stroke-miterlimit="10" stroke-opacity="1" fill="none" fill-rule="evenodd"/><path d="M1012.36 1250.6 1012.36 1790.52" stroke="#000000" stroke-width="4.58333" stroke-linecap="butt" stroke-linejoin="round" stroke-miterlimit="10" stroke-opacity="1" fill="none" fill-rule="evenodd"/><path d="M1135.97 1250.6 1135.97 1790.52" stroke="#000000" stroke-width="4.58333" stroke-linecap="butt" stroke-linejoin="round" stroke-miterlimit="10" stroke-opacity="1" fill="none" fill-rule="evenodd"/><path d="M1259.59 1116.77 1259.59 1790.52" stroke="#000000" stroke-width="4.58333" stroke-linecap="butt" stroke-linejoin="round" stroke-miterlimit="10" stroke-opacity="1" fill="none" fill-rule="evenodd"/><path d="M1383.2 1116.77 1383.2 1255.18" stroke="#000000" stroke-width="4.58333" stroke-linecap="butt" stroke-linejoin="round" stroke-miterlimit="10" stroke-opacity="1" fill="none" fill-rule="evenodd"/><path d="M1383.2 1384.43 1383.2 1790.52" stroke="#000000" stroke-width="4.58333" stroke-linecap="butt" stroke-linejoin="round" stroke-miterlimit="10" stroke-opacity="1" fill="none" fill-rule="evenodd"/><path d="M1506.81 1116.77 1506.81 1255.18" stroke="#000000" stroke-width="4.58333" stroke-linecap="butt" stroke-linejoin="round" stroke-miterlimit="10" stroke-opacity="1" fill="none" fill-rule="evenodd"/><path d="M1506.81 1384.43 1506.81 1790.52" stroke="#000000" stroke-width="4.58333" stroke-linecap="butt" stroke-linejoin="round" stroke-miterlimit="10" stroke-opacity="1" fill="none" fill-rule="evenodd"/><path d="M1630.43 1116.77 1630.43 1255.18" stroke="#000000" stroke-width="4.58333" stroke-linecap="butt" stroke-linejoin="round" stroke-miterlimit="10" stroke-opacity="1" fill="none" fill-rule="evenodd"/><path d="M1630.43 1384.43 1630.43 1790.52" stroke="#000000" stroke-width="4.58333" stroke-linecap="butt" stroke-linejoin="round" stroke-miterlimit="10" stroke-opacity="1" fill="none" fill-rule="evenodd"/><path d="M1754.04 1116.77 1754.04 1255.18" stroke="#000000" stroke-width="4.58333" stroke-linecap="butt" stroke-linejoin="round" stroke-miterlimit="10" stroke-opacity="1" fill="none" fill-rule="evenodd"/><path d="M1754.04 1384.43 1754.04 1790.52" stroke="#000000" stroke-width="4.58333" stroke-linecap="butt" stroke-linejoin="round" stroke-miterlimit="10" stroke-opacity="1" fill="none" fill-rule="evenodd"/><path d="M1877.66 1116.77 1877.66 1790.52" stroke="#000000" stroke-width="4.58333" stroke-linecap="butt" stroke-linejoin="round" stroke-miterlimit="10" stroke-opacity="1" fill="none" fill-rule="evenodd"/><path d="M2001.27 1116.77 2001.27 1389.02" stroke="#000000" stroke-width="4.58333" stroke-linecap="butt" stroke-linejoin="round" stroke-miterlimit="10" stroke-opacity="1" fill="none" fill-rule="evenodd"/><path d="M2001.27 1518.27 2001.27 1790.52" stroke="#000000" stroke-width="4.58333" stroke-linecap="butt" stroke-linejoin="round" stroke-miterlimit="10" stroke-opacity="1" fill="none" fill-rule="evenodd"/><path d="M2124.89 1116.77 2124.89 1389.02" stroke="#000000" stroke-width="4.58333" stroke-linecap="butt" stroke-linejoin="round" stroke-miterlimit="10" stroke-opacity="1" fill="none" fill-rule="evenodd"/><path d="M2124.89 1518.27 2124.89 1790.52" stroke="#000000" stroke-width="4.58333" stroke-linecap="butt" stroke-linejoin="round" stroke-miterlimit="10" stroke-opacity="1" fill="none" fill-rule="evenodd"/><path d="M2248.5 1116.77 2248.5 1790.52" stroke="#000000" stroke-width="4.58333" stroke-linecap="butt" stroke-linejoin="round" stroke-miterlimit="10" stroke-opacity="1" fill="none" fill-rule="evenodd"/><path d="M2372.11 1116.77 2372.11 1522.85" stroke="#000000" stroke-width="4.58333" stroke-linecap="butt" stroke-linejoin="round" stroke-miterlimit="10" stroke-opacity="1" fill="none" fill-rule="evenodd"/><path d="M2372.11 1652.1 2372.11 1790.52" stroke="#000000" stroke-width="4.58333" stroke-linecap="butt" stroke-linejoin="round" stroke-miterlimit="10" stroke-opacity="1" fill="none" fill-rule="evenodd"/><path d="M2495.73 1116.77 2495.73 1522.85" stroke="#000000" stroke-width="4.58333" stroke-linecap="butt" stroke-linejoin="round" stroke-miterlimit="10" stroke-opacity="1" fill="none" fill-rule="evenodd"/><path d="M2495.73 1652.1 2495.73 1790.52" stroke="#000000" stroke-width="4.58333" stroke-linecap="butt" stroke-linejoin="round" stroke-miterlimit="10" stroke-opacity="1" fill="none" fill-rule="evenodd"/><path d="M2619.34 1116.77 2619.34 1522.85" stroke="#000000" stroke-width="4.58333" stroke-linecap="butt" stroke-linejoin="round" stroke-miterlimit="10" stroke-opacity="1" fill="none" fill-rule="evenodd"/><path d="M2619.34 1652.1 2619.34 1790.52" stroke="#000000" stroke-width="4.58333" stroke-linecap="butt" stroke-linejoin="round" stroke-miterlimit="10" stroke-opacity="1" fill="none" fill-rule="evenodd"/><path d="M2742.96 1116.77 2742.96 1522.85" stroke="#000000" stroke-width="4.58333" stroke-linecap="butt" stroke-linejoin="round" stroke-miterlimit="10" stroke-opacity="1" fill="none" fill-rule="evenodd"/><path d="M2742.96 1652.1 2742.96 1790.52" stroke="#000000" stroke-width="4.58333" stroke-linecap="butt" stroke-linejoin="round" stroke-miterlimit="10" stroke-opacity="1" fill="none" fill-rule="evenodd"/><path d="M2866.57 1116.77 2866.57 1522.85" stroke="#000000" stroke-width="4.58333" stroke-linecap="butt" stroke-linejoin="round" stroke-miterlimit="10" stroke-opacity="1" fill="none" fill-rule="evenodd"/><path d="M2866.57 1652.1 2866.57 1790.52" stroke="#000000" stroke-width="4.58333" stroke-linecap="butt" stroke-linejoin="round" stroke-miterlimit="10" stroke-opacity="1" fill="none" fill-rule="evenodd"/><path d="M2990.19 1116.77 2990.19 1790.52" stroke="#000000" stroke-width="4.58333" stroke-linecap="butt" stroke-linejoin="round" stroke-miterlimit="10" stroke-opacity="1" fill="none" fill-rule="evenodd"/><path d="M3113.8 1116.77 3113.8 1656.68" stroke="#000000" stroke-width="4.58333" stroke-linecap="butt" stroke-linejoin="round" stroke-miterlimit="10" stroke-opacity="1" fill="none" fill-rule="evenodd"/><path d="M3237.41 1116.77 3237.41 1656.68" stroke="#000000" stroke-width="4.58333" stroke-linecap="butt" stroke-linejoin="round" stroke-miterlimit="10" stroke-opacity="1" fill="none" fill-rule="evenodd"/><path d="M3361.03 1116.77 3361.03 1790.52" stroke="#000000" stroke-width="4.58333" stroke-linecap="butt" stroke-linejoin="round" stroke-miterlimit="10" stroke-opacity="1" fill="none" fill-rule="evenodd"/><path d="M3484.64 1116.77 3484.64 1790.52" stroke="#000000" stroke-width="4.58333" stroke-linecap="butt" stroke-linejoin="round" stroke-miterlimit="10" stroke-opacity="1" fill="none" fill-rule="evenodd"/><path d="M3608.26 1116.77 3608.26 1790.52" stroke="#000000" stroke-width="4.58333" stroke-linecap="butt" stroke-linejoin="round" stroke-miterlimit="10" stroke-opacity="1" fill="none" fill-rule="evenodd"/><path d="M3731.87 1116.77 3731.87 1790.52" stroke="#000000" stroke-width="4.58333" stroke-linecap="butt" stroke-linejoin="round" stroke-miterlimit="10" stroke-opacity="1" fill="none" fill-rule="evenodd"/><path d="M762.837 1252.89 3857.78 1252.89" stroke="#000000" stroke-width="4.58333" stroke-linecap="butt" stroke-linejoin="round" stroke-miterlimit="10" stroke-opacity="1" fill="none" fill-rule="evenodd"/><path d="M762.837 1386.73 3857.78 1386.73" stroke="#000000" stroke-width="4.58333" stroke-linecap="butt" stroke-linejoin="round" stroke-miterlimit="10" stroke-opacity="1" fill="none" fill-rule="evenodd"/><path d="M762.837 1520.56 3857.78 1520.56" stroke="#000000" stroke-width="4.58333" stroke-linecap="butt" stroke-linejoin="round" stroke-miterlimit="10" stroke-opacity="1" fill="none" fill-rule="evenodd"/><path d="M762.837 1654.39 3857.78 1654.39" stroke="#000000" stroke-width="4.58333" stroke-linecap="butt" stroke-linejoin="round" stroke-miterlimit="10" stroke-opacity="1" fill="none" fill-rule="evenodd"/><path d="M3855.49 1116.77 3855.49 1790.52" stroke="#000000" stroke-width="4.58333" stroke-linecap="butt" stroke-linejoin="round" stroke-miterlimit="10" stroke-opacity="1" fill="none" fill-rule="evenodd"/><path d="M762.837 1119.06 3857.78 1119.06" stroke="#000000" stroke-width="4.58333" stroke-linecap="butt" stroke-linejoin="round" stroke-miterlimit="10" stroke-opacity="1" fill="none" fill-rule="evenodd"/><path d="M762.837 1788.23 3857.78 1788.23" stroke="#000000" stroke-width="4.58333" stroke-linecap="butt" stroke-linejoin="round" stroke-miterlimit="10" stroke-opacity="1" fill="none" fill-rule="evenodd"/><g><text fill="#000000" fill-opacity="1" font-family="Aptos,Aptos_MSFontService,sans-serif" font-style="normal" font-variant="normal" font-weight="400" font-stretch="normal" font-size="83" text-anchor="start" direction="ltr" writing-mode="lr-tb" unicode-bidi="normal" text-decoration="none" transform="matrix(1 0 0 1 798.128 1212)">40 </text></g><text fill="#000000" fill-opacity="1" font-family="Aptos,Aptos_MSFontService,sans-serif" font-style="normal" font-variant="normal" font-weight="400" font-stretch="normal" font-size="83" text-anchor="start" direction="ltr" writing-mode="lr-tb" unicode-bidi="normal" text-decoration="none" transform="matrix(1 0 0 1 902.972 1212)">m</text><g><text fill="#000000" fill-opacity="1" font-family="Aptos,Aptos_MSFontService,sans-serif" font-style="normal" font-variant="normal" font-weight="400" font-stretch="normal" font-size="83" text-anchor="start" direction="ltr" writing-mode="lr-tb" unicode-bidi="normal" text-decoration="none" transform="matrix(1 0 0 1 674.514 1212)">A</text></g><g><text fill="#000000" fill-opacity="1" font-family="Aptos,Aptos_MSFontService,sans-serif" font-style="normal" font-variant="normal" font-weight="400" font-stretch="normal" font-size="83" text-anchor="start" direction="ltr" writing-mode="lr-tb" unicode-bidi="normal" text-decoration="none" transform="matrix(1 0 0 1 1292.59 1345)">50 </text></g><text fill="#000000" fill-opacity="1" font-family="Aptos,Aptos_MSFontService,sans-serif" font-style="normal" font-variant="normal" font-weight="400" font-stretch="normal" font-size="83" text-anchor="start" direction="ltr" writing-mode="lr-tb" unicode-bidi="normal" text-decoration="none" transform="matrix(1 0 0 1 1397.43 1345)">m</text><g><text fill="#000000" fill-opacity="1" font-family="Aptos,Aptos_MSFontService,sans-serif" font-style="normal" font-variant="normal" font-weight="400" font-stretch="normal" font-size="83" text-anchor="start" direction="ltr" writing-mode="lr-tb" unicode-bidi="normal" text-decoration="none" transform="matrix(1 0 0 1 674.514 1345)">D</text></g><g><text fill="#000000" fill-opacity="1" font-family="Aptos,Aptos_MSFontService,sans-serif" font-style="normal" font-variant="normal" font-weight="400" font-stretch="normal" font-size="83" text-anchor="start" direction="ltr" writing-mode="lr-tb" unicode-bidi="normal" text-decoration="none" transform="matrix(1 0 0 1 1910.66 1479)">30 </text></g><text fill="#000000" fill-opacity="1" font-family="Aptos,Aptos_MSFontService,sans-serif" font-style="normal" font-variant="normal" font-weight="400" font-stretch="normal" font-size="83" text-anchor="start" direction="ltr" writing-mode="lr-tb" unicode-bidi="normal" text-decoration="none" transform="matrix(1 0 0 1 2015.5 1479)">m</text><g><text fill="#000000" fill-opacity="1" font-family="Aptos,Aptos_MSFontService,sans-serif" font-style="normal" font-variant="normal" font-weight="400" font-stretch="normal" font-size="83" text-anchor="start" direction="ltr" writing-mode="lr-tb" unicode-bidi="normal" text-decoration="none" transform="matrix(1 0 0 1 674.514 1479)">B</text></g><g><text fill="#000000" fill-opacity="1" font-family="Aptos,Aptos_MSFontService,sans-serif" font-style="normal" font-variant="normal" font-weight="400" font-stretch="normal" font-size="83" text-anchor="start" direction="ltr" writing-mode="lr-tb" unicode-bidi="normal" text-decoration="none" transform="matrix(1 0 0 1 2281.5 1613)">60 </text></g><text fill="#000000" fill-opacity="1" font-family="Aptos,Aptos_MSFontService,sans-serif" font-style="normal" font-variant="normal" font-weight="400" font-stretch="normal" font-size="83" text-anchor="start" direction="ltr" writing-mode="lr-tb" unicode-bidi="normal" text-decoration="none" transform="matrix(1 0 0 1 2386.34 1613)">m</text><g><text fill="#000000" fill-opacity="1" font-family="Aptos,Aptos_MSFontService,sans-serif" font-style="normal" font-variant="normal" font-weight="400" font-stretch="normal" font-size="83" text-anchor="start" direction="ltr" writing-mode="lr-tb" unicode-bidi="normal" text-decoration="none" transform="matrix(1 0 0 1 674.514 1613)">C</text></g><g><text fill="#000000" fill-opacity="1" font-family="Aptos,Aptos_MSFontService,sans-serif" font-style="normal" font-variant="normal" font-weight="400" font-stretch="normal" font-size="83" text-anchor="start" direction="ltr" writing-mode="lr-tb" unicode-bidi="normal" text-decoration="none" transform="matrix(1 0 0 1 3023.19 1747)">30 </text></g><text fill="#000000" fill-opacity="1" font-family="Aptos,Aptos_MSFontService,sans-serif" font-style="normal" font-variant="normal" font-weight="400" font-stretch="normal" font-size="83" text-anchor="start" direction="ltr" writing-mode="lr-tb" unicode-bidi="normal" text-decoration="none" transform="matrix(1 0 0 1 3128.03 1747)">m</text><g><text fill="#000000" fill-opacity="1" font-family="Aptos,Aptos_MSFontService,sans-serif" font-style="normal" font-variant="normal" font-weight="400" font-stretch="normal" font-size="83" text-anchor="start" direction="ltr" writing-mode="lr-tb" unicode-bidi="normal" text-decoration="none" transform="matrix(1 0 0 1 674.514 1747)">E</text></g><rect x="1861" y="1388" width="33" height="132" fill="#C00000" fill-opacity="1"/><rect x="1614" y="1254" width="33" height="132" fill="#C00000" fill-opacity="1"/><rect x="2109" y="1120" width="33" height="132" fill="#C00000" fill-opacity="1"/><rect x="2604" y="1521" width="33" height="132" fill="#C00000" fill-opacity="1"/><rect x="3345" y="1656" width="33" height="132" fill="#C00000" fill-opacity="1"/></g></g></svg>